<svg width="16" height="16" viewBox="0 0 16 16" fill="none" xmlns="http://www.w3.org/2000/svg">
<path d="M10.9603 2.56668C12.7284 2.56684 14.1663 4.00719 14.1664 5.79324C14.1664 6.53218 14.0487 7.21365 13.8441 7.84598L13.8431 7.84891C13.3523 9.40228 12.3445 10.6608 11.2484 11.6028C10.1502 12.5466 8.99209 13.148 8.25232 13.3997L8.24744 13.4016C8.2043 13.4169 8.11446 13.4329 8.00037 13.4329C7.88619 13.4329 7.79651 13.4169 7.7533 13.4016L7.74744 13.3997C7.00762 13.1479 5.84942 12.5465 4.75134 11.6028C3.6553 10.6608 2.64747 9.40224 2.15662 7.84891L2.15564 7.84598C1.95109 7.21368 1.83337 6.53214 1.83337 5.79324C1.83343 4.00709 3.27225 2.56668 5.04041 2.56668C6.08202 2.5668 7.01664 3.07311 7.59998 3.85281L8.00037 4.38797L8.40076 3.85281C8.98417 3.07314 9.91866 2.56668 10.9603 2.56668Z" fill="#D1D5DB" stroke="#D1D5DB"/>
</svg>
