<svg width="16" height="16" viewBox="0 0 16 16" fill="none" xmlns="http://www.w3.org/2000/svg">
<path d="M3.94861 3.65933C3.95908 3.65947 3.96924 3.66209 3.97888 3.66617C3.98865 3.67033 3.99782 3.67617 4.00525 3.68375L4.00916 3.68668C4.02996 3.70748 4.03923 3.73305 4.03845 3.76382C4.03751 3.79771 4.0234 3.83283 3.99841 3.85855C2.94831 4.92269 2.30039 6.38627 2.30017 7.99918C2.29921 8.79689 2.46013 9.58701 2.7738 10.3205C3.08744 11.0537 3.54708 11.7155 4.12439 12.2658C4.1497 12.2903 4.16483 12.3254 4.16638 12.3605C4.16768 12.3923 4.15866 12.418 4.13806 12.4386L4.13416 12.4425C4.1196 12.4573 4.09922 12.4655 4.07849 12.466C4.05782 12.4664 4.03705 12.4585 4.02185 12.4445C3.41498 11.8753 2.93155 11.1875 2.60095 10.424C2.26981 9.65908 2.09914 8.83365 2.09998 8.00015V7.99918C2.09923 7.1966 2.25706 6.40154 2.56482 5.66031C2.87216 4.92015 3.32216 4.2473 3.89001 3.68179L3.89099 3.68277C3.89856 3.67534 3.90752 3.66916 3.91736 3.66519C3.9272 3.66122 3.93799 3.65923 3.94861 3.65933ZM12.0511 3.65933C12.0617 3.65923 12.0726 3.66127 12.0824 3.66519C12.0921 3.66908 12.1013 3.67456 12.1088 3.68179C12.6769 4.24741 13.1275 4.91992 13.4349 5.66031C13.7427 6.40153 13.9005 7.1966 13.8998 7.99918V8.00015C13.9006 8.83365 13.7299 9.65908 13.3988 10.424C13.0681 11.1877 12.5841 11.8752 11.9769 12.4445C11.9617 12.4585 11.942 12.4664 11.9213 12.466C11.9005 12.4655 11.8802 12.4574 11.8656 12.4425L11.8627 12.4386L11.8392 12.4035C11.8345 12.3909 11.8328 12.377 11.8334 12.3615C11.8341 12.3439 11.8387 12.3261 11.8461 12.3097L11.8763 12.2658C12.4536 11.7154 12.9125 11.0529 13.226 10.3195C13.5394 9.5861 13.7007 8.79674 13.6996 7.99918C13.6994 6.48708 13.1302 5.10618 12.1937 4.06265L12.0013 3.85855C11.9764 3.83284 11.9622 3.79767 11.9613 3.76382C11.9605 3.73307 11.9698 3.70748 11.9906 3.68668L11.9916 3.68765L11.9945 3.68375C12.0019 3.67617 12.0111 3.67033 12.0209 3.66617C12.0305 3.66207 12.0407 3.65949 12.0511 3.65933ZM5.36267 5.07047C5.38151 5.07076 5.39934 5.07941 5.41248 5.09293L5.41833 5.09781C5.43906 5.11846 5.44882 5.14289 5.44763 5.17593C5.44617 5.21443 5.42894 5.25534 5.40173 5.28336L5.40076 5.28433C4.71996 5.9864 4.30039 6.94453 4.30017 7.99918C4.2996 8.53103 4.40776 9.05774 4.61853 9.54605C4.80297 9.97335 5.06263 10.3634 5.38416 10.6984L5.52576 10.839C5.55462 10.8665 5.57407 10.9076 5.57654 10.9474C5.57867 10.9818 5.56857 11.0071 5.54724 11.0285L5.54236 11.0334C5.52979 11.0463 5.51252 11.0541 5.49451 11.0548C5.47711 11.0555 5.46 11.0493 5.44666 11.0382C4.61864 10.2877 4.10002 9.20513 4.09998 8.00015V7.99918C4.09937 7.45744 4.20668 6.92096 4.41541 6.42105C4.62345 5.9228 4.92804 5.47065 5.31189 5.09097C5.32544 5.07789 5.34384 5.07017 5.36267 5.07047ZM10.6371 5.07047C10.6465 5.07032 10.6558 5.07195 10.6644 5.07535L10.6879 5.09C11.0719 5.46982 11.3763 5.92256 11.5844 6.42105C11.793 6.92106 11.9005 7.45737 11.8998 7.99918V8.00015C11.8997 9.20545 11.3805 10.2877 10.5521 11.0382C10.5389 11.049 10.5223 11.0555 10.5052 11.0548C10.4873 11.0541 10.4699 11.0462 10.4574 11.0334L10.4525 11.0285L10.4291 10.9923C10.4244 10.9793 10.4231 10.9644 10.4242 10.9474C10.4267 10.9074 10.4459 10.8665 10.475 10.839C10.8623 10.4747 11.1705 10.0343 11.3812 9.54605C11.592 9.05774 11.7002 8.53103 11.6996 7.99918C11.6994 6.94448 11.2799 5.98641 10.599 5.28433L10.598 5.28336L10.5658 5.23355C10.558 5.21511 10.5529 5.19533 10.5521 5.17593C10.5509 5.14249 10.5601 5.1173 10.5804 5.09683L10.5814 5.09781L10.5873 5.09195C10.6004 5.07848 10.6183 5.07081 10.6371 5.07047ZM8.00037 7.29996C8.18578 7.30006 8.36334 7.37399 8.49451 7.50504C8.62578 7.63631 8.69958 7.8145 8.69958 8.00015C8.69954 8.18575 8.62575 8.36403 8.49451 8.49527C8.36336 8.62622 8.1857 8.70025 8.00037 8.70035C7.81484 8.70035 7.6365 8.62638 7.50525 8.49527C7.37401 8.36403 7.30021 8.18575 7.30017 8.00015C7.30017 7.8145 7.37397 7.63631 7.50525 7.50504C7.63651 7.37383 7.81477 7.29996 8.00037 7.29996Z" fill="#D1D5DB" stroke="#D1D5DB"/>
</svg>
